<svg width="103" height="24" viewBox="0 0 103 24" fill="none" xmlns="http://www.w3.org/2000/svg">
<path d="M35.3303 17.8597C35.3303 18.0365 35.3303 18.1658 35.3303 18.2952C35.3303 20.0565 35.3217 21.8179 35.3368 23.5792C35.3389 23.9048 35.2506 24.0018 34.9207 23.9975C33.569 23.9802 32.2194 23.9824 30.8677 23.9975C30.568 23.9996 30.4559 23.9199 30.458 23.6051C30.4667 17.5773 30.4645 11.5473 30.4645 5.51944C30.4645 5.32326 30.43 5.11198 30.7448 5.11198C32.1332 5.11845 33.5215 5.11629 34.9099 5.11845C34.9574 5.11845 35.0048 5.13785 35.1018 5.15941V6.42922C35.3842 6.19423 35.589 6.00236 35.8132 5.84066C36.9494 5.02574 38.2472 4.83603 39.5968 4.90717C43.5033 5.11629 46.1615 8.30699 46.0019 12.3622C45.9221 14.3973 45.2452 16.1609 43.7361 17.5665C41.8152 19.3537 38.4283 19.7978 36.2854 18.5302C35.9706 18.3448 35.686 18.1098 35.3325 17.8575L35.3303 17.8597ZM41.0995 12.069C41.0606 11.737 41.0391 11.4028 40.9766 11.0773C40.748 9.91528 39.8275 8.99471 38.7388 8.81793C37.4258 8.60665 36.2746 9.10251 35.6817 10.2193C35.1104 11.295 35.1061 12.4441 35.5136 13.5695C36.197 15.4559 38.7495 16.0013 40.1746 14.5871C40.8709 13.895 41.0757 13.0197 41.0995 12.069Z" fill="#22428F"/>
<path d="M91.0747 17.6463C91.0747 17.9934 91.0747 18.2758 91.0747 18.5582C91.0747 20.2333 91.0661 21.9063 91.0812 23.5814C91.0833 23.9091 90.9863 24.0061 90.6608 23.9997C89.6454 23.9803 88.6278 23.9932 87.6124 23.9932C87.082 23.9932 87.082 23.9932 87.082 23.4715C87.082 18.002 87.082 12.5304 87.082 7.06093C87.082 6.55215 87.0842 6.04336 87.082 5.53458C87.082 5.35133 87.1144 5.22844 87.3451 5.2306C88.5092 5.23706 89.6734 5.23275 90.885 5.23275V6.66425C90.9669 6.65132 91.0122 6.65779 91.0316 6.63838C92.2949 5.30821 93.9032 4.918 95.6473 5.03657C98.1158 5.20473 100.047 6.31285 101.253 8.52693C102.663 11.1183 102.548 15.8289 99.2261 18.0085C96.9775 19.4831 94.5888 19.7008 92.1505 18.4375C91.784 18.2478 91.4757 17.9438 91.0769 17.6463H91.0747ZM91.01 12.1251C91.051 12.4808 91.0596 12.8452 91.1372 13.1922C91.4369 14.5354 92.2044 15.4839 93.5734 15.8073C94.9876 16.1436 96.2661 15.8677 97.2211 14.682C98.0059 13.7097 98.1395 12.5627 97.9714 11.3748C97.5661 8.49028 94.591 7.59128 92.6054 8.86325C91.4304 9.61565 91.0251 10.7798 91.01 12.1251Z" fill="#22428F"/>
<path d="M66.1345 18.9894H62.1418C62.1353 18.8363 62.1224 18.7027 62.1224 18.5712C62.1224 12.5412 62.1245 6.51119 62.1138 0.481204C62.1138 0.108237 62.2043 -0.00818272 62.5859 0.000440785C63.6143 0.0263113 64.6448 0.00906614 65.6731 0.00906614H66.1172V6.62976C66.2875 6.49394 66.391 6.41633 66.4902 6.33225C68.5189 4.63342 72.1731 4.57306 74.2255 6.2029C75.4996 7.21401 76.1076 8.59161 76.155 10.1546C76.2412 13.0176 76.2089 15.8849 76.224 18.7501C76.224 18.8212 76.2024 18.8946 76.1895 18.9873H72.227C72.227 18.8256 72.227 18.6703 72.227 18.5151C72.227 16.3075 72.2399 14.0977 72.2162 11.8901C72.2097 11.3382 72.1451 10.7712 72.0006 10.2387C71.716 9.19957 70.8558 8.56574 69.7822 8.50969C67.5164 8.3868 66.1539 9.68464 66.1366 12.013C66.1215 14.184 66.1323 16.3549 66.1323 18.5259C66.1323 18.6725 66.1323 18.8169 66.1323 18.9894H66.1345Z" fill="#22428F"/>
<path d="M20.3993 19.2849C18.7199 19.2568 17.1439 18.8796 15.7318 17.959C13.5242 16.5189 12.47 14.4449 12.5584 11.8212C12.6554 8.86119 14.1149 6.75705 16.8141 5.60797C19.3882 4.51278 22.0097 4.57531 24.5041 5.87099C27.1019 7.21841 28.2898 9.4519 28.2014 12.3602C28.1001 15.7729 25.7135 18.4419 22.2037 19.0736C21.6087 19.1814 21.0008 19.2137 20.3993 19.2827V19.2849ZM23.314 12.0476C23.2774 11.7285 23.258 11.4051 23.1976 11.0904C22.9712 9.90894 22.083 9.00994 20.9749 8.82023C19.6943 8.60033 18.5517 9.07247 17.933 10.1245C17.4026 11.0257 17.3875 12.0152 17.5621 13.0113C17.782 14.2617 18.666 15.1283 19.9013 15.3396C21.1172 15.5466 22.2727 15.0141 22.8678 13.9512C23.1955 13.3648 23.2989 12.7181 23.3162 12.0476H23.314Z" fill="#22428F"/>
<path d="M10.7622 15.0851C11.1373 16.148 11.5189 17.2065 11.8725 18.2758C11.8984 18.3578 11.7475 18.5777 11.6418 18.61C10.9239 18.8277 10.2038 19.0908 9.46654 19.1899C8.39507 19.3344 7.31282 19.2654 6.26506 18.942C4.2644 18.3276 3.05711 16.8271 2.97519 14.7359C2.91051 13.0759 2.92129 11.4137 2.92345 9.75149C2.92345 9.38499 2.83721 9.23624 2.44916 9.26858C2.04385 9.30307 1.63208 9.26858 1.22246 9.27935C0.989627 9.28582 0.890457 9.21252 0.892612 8.96244C0.903392 7.9578 0.901236 6.95316 0.892612 5.94852C0.892612 5.70922 0.97238 5.61436 1.21599 5.62083C1.66226 5.63377 2.10853 5.61005 2.5548 5.6273C2.82859 5.63808 2.92345 5.54753 2.91914 5.26726C2.9062 4.34886 2.91267 3.43261 2.91483 2.51421C2.91483 2.36761 2.92776 2.22317 2.93639 2.05286H7.7828V5.59065C7.95096 5.60358 8.08031 5.62083 8.20966 5.62083C9.01596 5.62299 9.82226 5.63161 10.6264 5.61867C10.9024 5.61436 10.9929 5.70706 10.9907 5.98302C10.9778 6.96178 10.9778 7.94271 10.9907 8.92148C10.9951 9.2039 10.8959 9.28367 10.6242 9.27935C9.80717 9.26642 8.98793 9.28582 8.17086 9.26858C7.87981 9.26211 7.78926 9.35481 7.79142 9.64801C7.80436 11.0256 7.79573 12.4011 7.79789 13.7787C7.8022 15.0916 8.57832 15.7082 9.86106 15.402C10.1456 15.3331 10.4173 15.2059 10.7558 15.083L10.7622 15.0851Z" fill="#22428F"/>
<path d="M48.5378 14.8673C49.4713 15.4149 50.4264 15.7836 51.4396 15.9862C52.5413 16.2061 53.6494 16.2923 54.7575 16.0336C54.9473 15.9884 55.1348 15.9108 55.3095 15.8202C55.6846 15.624 55.8786 15.3028 55.8506 14.8781C55.8247 14.4685 55.5531 14.2141 55.1887 14.1128C54.6174 13.9532 54.0332 13.8411 53.4532 13.7204C52.3753 13.4962 51.2758 13.3474 50.2237 13.0413C49.01 12.6899 48.0334 11.9806 47.6841 10.6655C47.1559 8.67132 47.9838 6.85177 49.8227 5.88593C50.8554 5.34481 51.9635 5.11197 53.1083 5.04083C55.0012 4.92657 56.8401 5.19821 58.6058 5.90964C58.7653 5.97432 58.9184 6.06056 59.0715 6.14033C59.1124 6.16188 59.1469 6.20285 59.2073 6.25459C58.7739 7.18161 58.3406 8.10649 57.9159 9.01196C57.2713 8.77481 56.6806 8.52041 56.0683 8.33932C55.0227 8.03103 53.9448 7.94911 52.869 8.14314C52.5003 8.20997 52.136 8.36519 51.8061 8.54844C51.472 8.736 51.3275 9.07231 51.3836 9.47115C51.4375 9.86352 51.6854 10.1158 52.039 10.202C52.9897 10.4284 53.9512 10.6008 54.902 10.8229C55.7794 11.0277 56.6871 11.1829 57.5171 11.5171C60.393 12.6748 60.1537 16.2449 58.3514 17.7131C57.2929 18.5754 56.0575 18.9786 54.7338 19.1273C52.4249 19.3882 50.1849 19.1209 48.0398 18.1874C47.1624 17.8058 47.1645 17.8015 47.5569 16.9607C47.876 16.2773 48.1972 15.5938 48.5378 14.863V14.8673Z" fill="#22428F"/>
<path d="M82.9122 18.9938H79.6978V5.34277H82.9122V18.9938Z" fill="#22428F"/>
<path d="M82.9142 1.44061C82.4313 1.71657 80.9502 2.62851 80.4328 2.92171C80.1546 2.5358 79.883 2.16068 79.6006 1.77478C80.9437 1.47727 82.2415 1.18838 83.6148 0.884399C83.0651 2.05935 82.539 3.18256 81.9764 4.38554L81.4934 3.7625L81.073 4.38554L81.0429 3.4154L82.9163 1.44277L82.9142 1.44061Z" fill="#22428F"/>
</svg>
